<svg width="16" height="15" viewBox="0 0 16 15" fill="none" xmlns="http://www.w3.org/2000/svg">
<path d="M8.00008 15C6.98897 15 6.03619 14.8084 5.14175 14.425C4.2473 14.0417 3.46953 13.5195 2.80841 12.8584C2.1473 12.1973 1.62508 11.4195 1.24175 10.525C0.858415 9.6306 0.666748 8.67782 0.666748 7.66671C0.666748 6.64448 0.858415 5.68893 1.24175 4.80004C1.62508 3.91115 2.1473 3.13615 2.80841 2.47504C3.46953 1.81393 4.2473 1.29171 5.14175 0.908374C6.03619 0.525041 6.98897 0.333374 8.00008 0.333374C9.0223 0.333374 9.97786 0.525041 10.8667 0.908374C11.7556 1.29171 12.5306 1.81393 13.1917 2.47504C13.8529 3.13615 14.3751 3.91115 14.7584 4.80004C15.1417 5.68893 15.3334 6.64448 15.3334 7.66671C15.3334 8.67782 15.1417 9.6306 14.7584 10.525C14.3751 11.4195 13.8529 12.1973 13.1917 12.8584C12.5306 13.5195 11.7556 14.0417 10.8667 14.425C9.97786 14.8084 9.0223 15 8.00008 15ZM7.58341 12.85C7.69453 12.9612 7.8223 13.0167 7.96675 13.0167C8.11119 13.0167 8.23897 12.9612 8.35008 12.85L13.1501 8.05004C13.2612 7.93893 13.3167 7.8056 13.3167 7.65004C13.3167 7.49448 13.2612 7.36115 13.1501 7.25004L8.35008 2.45004C8.23897 2.33893 8.11119 2.28337 7.96675 2.28337C7.8223 2.28337 7.69453 2.33893 7.58341 2.45004L2.78341 7.25004C2.6723 7.36115 2.61675 7.49448 2.61675 7.65004C2.61675 7.8056 2.6723 7.93893 2.78341 8.05004L7.58341 12.85ZM5.31675 9.65004V6.98337C5.31675 6.78337 5.37786 6.62226 5.50008 6.50004C5.6223 6.37782 5.78341 6.31671 5.98341 6.31671H8.75008L8.05008 5.58337L8.98341 4.65004L11.3167 6.98337L8.98341 9.31671L8.05008 8.38337L8.75008 7.65004H6.65008V9.65004H5.31675ZM8.00008 13.6667C9.67786 13.6667 11.0973 13.0862 12.2584 11.925C13.4195 10.7639 14.0001 9.34448 14.0001 7.66671C14.0001 5.98893 13.4195 4.56949 12.2584 3.40837C11.0973 2.24726 9.67786 1.66671 8.00008 1.66671C6.3223 1.66671 4.90286 2.24726 3.74175 3.40837C2.58064 4.56949 2.00008 5.98893 2.00008 7.66671C2.00008 9.34448 2.58064 10.7639 3.74175 11.925C4.90286 13.0862 6.3223 13.6667 8.00008 13.6667Z" fill="#1C1B1F"/>
</svg>
