<svg width="18" height="12" viewBox="0 0 18 12" fill="none" xmlns="http://www.w3.org/2000/svg">
<path opacity="0.6" fill-rule="evenodd" clip-rule="evenodd" d="M12.1013 5.08666C12.4656 5.451 12.4656 6.0417 12.1013 6.40604L7.43653 11.0708C7.0722 11.4351 6.48149 11.4351 6.11715 11.0708C5.75281 10.7064 5.75281 10.1157 6.11715 9.75138L10.1222 5.74635L6.11715 1.74132C5.75282 1.37698 5.75282 0.786272 6.11715 0.421935C6.48149 0.057597 7.0722 0.057597 7.43654 0.421935L12.1013 5.08666Z" fill="#263238"/>
<path opacity="0.4" fill-rule="evenodd" clip-rule="evenodd" d="M6.5036 5.08666C6.86794 5.451 6.86794 6.0417 6.5036 6.40604L1.83888 11.0708C1.47454 11.4351 0.883833 11.4351 0.519496 11.0708C0.155159 10.7064 0.155159 10.1157 0.519496 9.75138L4.52453 5.74635L0.519497 1.74132C0.155159 1.37698 0.155159 0.786272 0.519497 0.421935C0.883834 0.057597 1.47454 0.057597 1.83888 0.421935L6.5036 5.08666Z" fill="#263238"/>
<path fill-rule="evenodd" clip-rule="evenodd" d="M17.6989 5.08666C18.0633 5.451 18.0633 6.0417 17.6989 6.40604L13.0342 11.0708C12.6699 11.4351 12.0791 11.4351 11.7148 11.0708C11.3505 10.7064 11.3505 10.1157 11.7148 9.75138L15.7198 5.74635L11.7148 1.74132C11.3505 1.37698 11.3505 0.786272 11.7148 0.421935C12.0791 0.057597 12.6699 0.057597 13.0342 0.421935L17.6989 5.08666Z" fill="#263238"/>
</svg>
